<svg xmlns="http://www.w3.org/2000/svg" width="512" height="512" viewBox="0 0 512 512">
  <defs>
    <linearGradient id="bg" x1="0" x2="1" y1="0" y2="1">
      <stop offset="0" stop-color="#22d3ee" stop-opacity="1"/>
      <stop offset="0.5" stop-color="#a855f7" stop-opacity="1"/>
      <stop offset="1" stop-color="#fb7185" stop-opacity="1"/>
    </linearGradient>
    <linearGradient id="ring" x1="1" x2="0" y1="0" y2="1">
      <stop offset="0" stop-color="#f59e0b"/>
      <stop offset="1" stop-color="#22d3ee"/>
    </linearGradient>
    <filter id="glow" x="-50%" y="-50%" width="200%" height="200%">
      <feGaussianBlur stdDeviation="12" result="blur"/>
      <feColorMatrix
        in="blur"
        type="matrix"
        values="1 0 0 0 0
                0 1 0 0 0
                0 0 1 0 0
                0 0 0 0.65 0"
      />
      <feMerge>
        <feMergeNode/>
        <feMergeNode in="SourceGraphic"/>
      </feMerge>
    </filter>
  </defs>

  <rect width="512" height="512" rx="256" fill="#0b1020"/>
  <circle cx="256" cy="256" r="228" fill="url(#bg)" opacity="0.22" filter="url(#glow)"/>
  <circle cx="256" cy="256" r="220" fill="none" stroke="url(#ring)" stroke-width="10" opacity="0.85"/>

  <!-- Stylized head -->
  <circle cx="256" cy="210" r="72" fill="rgba(255,255,255,0.92)"/>
  <path
    d="M140 410c18-64 63-104 116-104s98 40 116 104"
    fill="rgba(255,255,255,0.92)"
  />

  <!-- Tech lines -->
  <path d="M92 180h86" stroke="rgba(34,211,238,0.55)" stroke-width="6" stroke-linecap="round"/>
  <path d="M334 180h86" stroke="rgba(251,113,133,0.55)" stroke-width="6" stroke-linecap="round"/>
  <path d="M92 332h120" stroke="rgba(168,85,247,0.55)" stroke-width="6" stroke-linecap="round"/>
  <path d="M300 332h120" stroke="rgba(245,158,11,0.55)" stroke-width="6" stroke-linecap="round"/>
  <circle cx="178" cy="180" r="8" fill="rgba(34,211,238,0.85)"/>
  <circle cx="334" cy="180" r="8" fill="rgba(251,113,133,0.85)"/>
  <circle cx="212" cy="332" r="8" fill="rgba(168,85,247,0.85)"/>
  <circle cx="300" cy="332" r="8" fill="rgba(245,158,11,0.85)"/>
</svg>
